<?xml version="1.0" encoding="UTF-8"?>
<svg id="owlpuppy" xmlns="http://www.w3.org/2000/svg" viewBox="0 0 1853.52 1860.17">
  <path id="arc-b" d="M1564.65,393.01l-17.75-142.43c313.4,282.11,398.11,743.87,200.35,1114.93-149.91,281.29-435.16,467.06-754.49,492.3-232.34,16.78-460.58-56.61-641.7-199.09C-102.65,1301.79-116.68,630.86,309.57,247.33c-9.43,50.03-15.95,94.24-17.38,143.08C34.6,683.31,21.36,1128.76,257.31,1438.76c165.69,217.69,428.75,341.02,702.63,334.15,264.69-14.76,510.59-149.62,659.46-367.08,212.29-310.09,188.98-726.97-54.75-1012.83Z"/>
  <path id="eye" d="M1301.64,809.77c6.64,46.92-7.09,89.42-37.49,120.54-29.33,30.02-72.05,44.76-117.23,38.83-24.25-3.18-47.04-15.82-70.54-25.68-16.28,14.27-16.68,37.53-18.44,61.36-23.67-22.85-35.77-107.89-63.45-108.97-27.81-1.09-60.76,81.85-66.65,108.84-11.02-30.89-38.32-106.71-66.02-110.06-28.24-3.42-39.37,88.75-67.04,112.55,3.04-22.05,2.09-51.74-18.33-62.59-67.83,36.32-140.21,36.88-190.54-19.54-27.79-31.15-40.65-73.36-32.77-116.36-26.64-5.05-47.36-13.13-70.19-27.12-83.5,87.08-65.24,219.82,7.33,314.08-50.42-27.62-83.15-74.28-101.98-125.96-24.03-65.95-14.28-132.6,19.41-193.81-25.68,6.97-42.84,19.83-65.93,32.82,9.08-43.76,32.33-77.31,65.46-106.03-30.18-25.34-55.61-53.78-72.53-91.73,18.6,7.91,32.26,13.08,51.74,15.53-25.48-41.24-42.44-83.1-52.09-132.17,24.26,13.19,45.39,25.17,73.77,21.62-50.32-23.43-78.52-66.63-84.14-123.67,22.86,21.4,47.38,43.82,83.27,52.42-44.32-39.99-78.84-87.84-71.86-150.06,18.98,28.31,37.05,60.22,70.73,70.28-37.49-51.78-58.01-105.43-40.75-166.47,80.62,138.5,170.78,119.21,263.18,261.31,60.22,92.62,127.46,73.57,188.07,145.8-1.95-30.27-19.85-50.24-33.57-77.57,77.22,32.11,122.38,100.29,144.49,177.26,20.51-79.82,67.12-144.57,143.74-177.71-13.51,26.5-31.87,49.15-36.48,81.14,68.94-81.4,125.57-49.96,192.39-150.28,82.33-131.87,185-126.73,262.73-258.86,15.82,63.74-5.93,122.55-47.51,170.97,34.79-13.49,55.11-42.36,75.66-72.16,10.68,59.47-30.98,110.6-71.25,146.79,34.02-9.07,61.49-27.95,83.67-54.47-1.77,56.99-33.83,99.02-83.88,127.18,25.59-.89,48.49-7.6,72.76-23.48-6.7,49.81-26.45,89.17-49.93,132.14,17.49-3.77,31.76-8.22,49.59-14.26-15.81,34.96-39.43,63.88-71.47,89.54,32.81,29.22,58.05,67.57,66.2,109.21-24.47-15.94-43.28-27.23-67.92-37.49,69.52,115.88,24.83,262.02-85.44,325.76,74.69-88.26,96.48-228.67,12.23-317.24-22.64,12.6-44.34,20.75-71,27.75ZM1398.25,696c-27.61,3.71-52.18,5.74-77.48,1.34,58.56-15.65,105.03-48.49,117.7-107.73-29.85,24.19-60.66,42.46-101.42,43.23,22.36-24.8,36.71-52.71,30.23-81.98-15.17,14.75-28.4,26.59-45.49,37.59,9.87-36.82,19.22-65.38,2.67-98.44-12.27,42.65-34.94,81.95-75.19,110.36,2.65-25.33,5.98-49.8-5.12-73.71-17.43,62.97-59.83,108.16-114.84,133.37l34.5-62c-111.67,29.18-194.65,164.24-142.17,269.53,30.07-58.54,79.34-107.69,146.83-117.61,71.18-10.46,154.9,24.3,229.77-53.96ZM832.23,866.78c52.06-104.38-31.99-242.88-139.87-266.72l31.08,58.14c-59.16-24.89-94.6-73.43-113.77-129.63-9.25,23.83-8.05,44.96-4.26,71.78-37.76-25.34-59.93-62.31-76.05-107.06-15.09,32.65-4.88,64.51,6.21,97.17-19.88-12.59-34.22-26.52-50.09-42.17-2.1,32.19,10.67,58.42,29.74,84.03-38.52-.74-65.57-17.5-98.16-40.21,11.27,58.28,61.38,91.68,119.07,105.26-28.52,4.97-53.18,1.88-81.61-2.02,129.86,128.15,256.4-44.29,377.71,171.41ZM750.32,833.28c-.53,26.95-11.29,52.48-33.11,63.91-25.9,13.57-54.6,8.68-73.11-9.8-19.58-19.55-24.05-47.56-11.16-71.9,2.98,17.63,12.01,27.55,25.03,26.79,14.8-.86,24.09-12.31,23.37-24.86-1.43-24.89-59.53-40.59-73.82-23.34-34.67,41.84-15.92,104.77,29.44,131.75,47.07,28,109.36,14.69,132.73-37.01,8.15-18.03-8.13-41.24-19.37-55.54ZM1085.43,887.45c11.83,34.59,44.58,49.09,72.76,52.13,33.28,3.58,64.01-10.34,84.86-36.06,24.98-30.82,31.63-77.94,4.88-108.74-12.78-14.72-75.66-6.36-74.02,26.89.48,9.7,11.98,21.5,24.87,20.89,9.74-.46,18.71-10.61,25.77-23.13,7.79,24.56,3.63,51.8-17.14,70.11-18.44,16.25-45.9,21.28-70.81,7.42-20.75-11.55-31.31-34.99-32.32-65.61-11,13.76-25.79,35.78-18.84,56.1Z"/>
  <path id="arc-i-l" d="M386.91,1360.81c3.9,54.88,26.73,101.44,67.91,134.29-6.01-53.67-.77-106.03,33.8-149.18-4.1,105.86,9.85,181.65,100.13,240.9-12.66-46.87-13.09-93.61,13.93-135.91-2.12,77.69,32.78,145.41,98.73,183.65-3.87-34.67-8.37-63.98,6.91-91.31,12.16,59.03,47.56,103.11,99.06,127.44-2.75-25.48-5.48-46.63,8.57-69.82,12.03,48.43,42.15,83.81,77.75,119.42-257.36-13.75-495.15-150.81-631.22-365.99-171.01-270.44-160.44-629.68,32.42-886.16l22.53,103.09-34.96-18.03c13.15,59.44,30.89,103.59,73.29,144.54-47.58,61.16-66.15,136.93-62.43,214.05l43.62-43.81-7.55,76.82c-8.25,83.88-9.59,145.78-80.86,207.1,37.14,19.07,74.9,8.36,112.27-12.87-49.2,64.54-67.88,146.12-26.31,220.59,12.93-49.81,35.01-95.8,82.79-122.61-17.4,37.52-30.78,78.03-30.4,123.8Z"/>
  <path id="arc-i-r" d="M1401.57,1495.02c79.49-75.22,82.66-157.63,37.13-256.43,46.19,24.39,70.89,70.69,80.47,123.04,41.12-73.96,25.44-151.74-22.26-222.33,34.26,23.03,72.52,29.49,110.75,13.53-56.4-44.69-74.72-111.95-80.1-179.21l-8.45-105.76,43.04,43.53c1.24-74.57-13.9-149.08-61.48-212.71,39.43-41.39,61.3-90.27,71.41-145.06l-33.51,17.25,21.66-101.56c144.38,198.03,188.13,447.84,120.53,683.79-43.25,150.95-127.3,281.23-248.65,381.77-132.7,109.95-297.06,176.82-473.65,185.27,37.75-33.24,66.33-68.71,82.19-118.26,9.34,20.8,8.61,41.98,6.43,68.56,52.25-25.45,87.19-69.08,100.91-128.3,13.94,28.68,9.39,57.51,5.69,91.18,65.63-35.81,99.76-104.09,99.03-181.51,27.59,39.6,23.68,86.28,14.97,134.9,84.26-53.15,110.15-145.17,97.02-244.07,34.55,42.8,41.8,95.62,36.87,152.37Z"/>
  <path id="arc-i-t" d="M619.42,383.87c-22.46-21.39-41.98-40.36-65.45-57.22l-69.57-50c135.63-95.07,296.56-141.46,462.91-136.69,151.09,2.72,294.92,49.05,424.04,136.5-49.23,33.91-95.97,64.67-135.02,107.63-197.62-89.3-418.95-90.02-616.92-.22Z"/>
  <path id="arc-t" d="M1411.91,242.81c-288.81-204.48-675.17-209.34-967.58-.53-20.64-18.62-36.76-41.85-52.17-67.97,308.68-232.2,758.68-232.38,1070.37-.69-13.6,24.59-29.91,46.48-50.63,69.19Z"/>
  <path id="n" d="M928.14,1373.41c-98.07,46.83-189.75,43.21-253.42-47.96l-28.3-40.52c-4.09-5.86-4.55-20-.8-26.7,4.27-7.64,18.22-12.69,28.03-10.94,27.1,4.82,14.23,72.36,86.38,104.45,60.18,26.77,144.27-1.24,144.52-34.77.13-17.1-51.2-23.59-69.29-60.35l36.17-2.89c7.83-.63,13.66-15.86,12.65-23.12-1.41-10.14-14.59-21.82-24.59-10.91-5.12,5.59-10.62,13.41-15.51,16.19-5.59,3.18-21.47-2.79-26.2-8.43-21.62-25.72-19.68-69.79,8.33-90.75,43.43-32.5,153.23-34.19,201.18-1.4,29.34,20.06,30.37,63.8,11.09,91.77-4.49,6.51-18.86,11.65-26.01,9.57-6.24-1.82-12.58-11.34-18.61-17.1-11.48-10.97-23.65,2.92-23.85,16.14-.15,9.93,10.11,19.7,22.46,19.45l27.54-.57c-13.48,31.57-38.37,36.98-62.95,51.54-11.08,6.56-4.71,27.59,6.34,34.07,34.75,20.38,74.63,28.4,113.75,17.81,88.49-23.94,75.71-105.51,105.41-110.62,9.67-1.67,21.76,3.59,26.85,12.19,3.87,6.55,2.86,20.25-2.05,27.4l-28.74,41.92c-58.86,85.84-158.6,91.65-250.4,44.55Z"/>
</svg>